#!OML:ASF X:\für Bonn\!DataBase\2005_08_12_Daniel\c3d\Daniel.ASF
:FULLY-SPECIFIED
:DEGREES
369
root 19.3869 1.22235 0.491317 -1708.31 258.672 153.464
lowerback 27.3218 -2.72714 0.735378
upperback 5.76501 -4.34326 -4.98618
thorax -9.12536 -2.3811 -4.47601
lowerneck -9.13695 2.03083 -3.48868
upperneck 1.74704 2.99612 1.01977
head 2.05495 1.46954 1.06007
rclavicle -2.90226e-014 8.83567e-014
rhumerus -404.124 22.8914 271.459
rradius 78.1965
rwrist 5.54333
rhand -25.9896 740.998
rfingers 7.12502
rthumb 0.555789 711.019
lclavicle -2.90226e-014 8.83567e-014
lhumerus -569.248 193.582 -474.072
lradius 89.7815
lwrist 4.9846
lhand -21.7296 -727.913
lfingers 7.12502
lthumb 4.66986 22.0153
rfemur -523.392 -186.028 556.562
rtibia 29.8187
rfoot -2.90308 -23.3028
rtoes 27.2774
lfemur -8.43773 736.751 -22.6299
ltibia 80.4769
lfoot 142.788 567.775
ltoes 27.0577
370
root 19.3949 1.22454 0.500318 -1706.99 258.632 152.18
lowerback 27.1946 -2.82619 0.88265
upperback 5.80316 -4.42737 -4.98884
thorax -9.03623 -2.42431 -4.53835
lowerneck -8.98244 1.99808 -3.42305
upperneck 1.53627 2.93894 0.991732
head 1.95963 1.44256 1.03112
rclavicle 1.59823e-013 -1.0288e-013
rhumerus -404.4 22.0392 270.826
rradius 75.8702
rwrist 6.77294
rhand -25.4345 740.259
rfingers 7.12502
rthumb 1.09188 710.282
lclavicle 1.59823e-013 -1.0288e-013
lhumerus -570.253 192.764 -472.915
lradius 87.676
lwrist 3.50137
lhand -20.9092 -727.359
lfingers 7.12502
lthumb 5.46198 22.5505
rfemur -523.484 -185.067 555.993
rtibia 29.848
rfoot -1.8292 -22.6725
rtoes 26.7954
lfemur -8.44753 736.42 -22.8004
ltibia 80.204
lfoot 143.199 567.902
ltoes 27.0075
371
root 19.4005 1.22577 0.507626 -1705.75 258.623 150.947
lowerback 27.1207 -2.9248 1.03194
upperback 5.83064 -4.51091 -4.97821
thorax -8.98533 -2.46729 -4.58571
lowerneck -8.79111 1.96687 -3.36108
upperneck 1.29491 2.88278 0.965843
head 1.84786 1.41627 1.00266
rclavicle -3.06128e-014 -1.2538e-013
rhumerus -404.623 21.162 270.249
rradius 73.5034
rwrist 8.12766
rhand -24.8696 739.474
rfingers 7.12502
rthumb 1.63746 709.5
lclavicle -3.06128e-014 -1.2538e-013
lhumerus -571.213 191.94 -471.865
lradius 85.4877
lwrist 1.96734
lhand -20.1859 -726.895
lfingers 7.12502
lthumb 6.16033 22.9955
rfemur -523.514 -184.213 555.545
rtibia 29.8428
rfoot -0.938814 -22.0519
rtoes 26.5987
lfemur -8.45848 736.102 -22.9016
ltibia 79.9729
lfoot 143.746 567.997
ltoes 26.9528
372
root 19.4055 1.22671 0.511977 -1704.52 258.576 149.709
lowerback 27.0689 -3.00308 1.11942
upperback 5.84747 -4.58483 -4.95839
thorax -8.95182 -2.50395 -4.58957
lowerneck -8.61973 1.9311 -3.34757
upperneck 1.10076 2.82663 0.954297
head 1.75497 1.38967 0.988491
rclavicle -2.90226e-014 2.71776e-014
rhumerus -404.775 20.2911 269.791
rradius 71.0673
rwrist 9.53328
rhand -24.3819 738.817
rfingers 7.12502
rthumb 2.1085 708.848
lclavicle -2.90226e-014 2.71776e-014
lhumerus -572.155 191.134 -470.868
lradius 83.2755
lwrist 0.465078
lhand -19.5292 -726.475
lfingers 7.12502
lthumb 6.7943 23.3964
rfemur -523.506 -183.521 555.175
rtibia 29.8236
rfoot -0.321803 -21.4629
rtoes 26.6091
lfemur -8.45397 735.797 -23.0107
ltibia 79.7551
lfoot 144.333 568.019
ltoes 27.0095
373
root 19.4092 1.22654 0.513772 -1703.37 258.558 148.541
lowerback 27.038 -3.07883 1.20386
upperback 5.88798 -4.65732 -4.93423
thorax -8.9014 -2.54042 -4.58692
lowerneck -8.50596 1.89188 -3.3507
upperneck 0.910116 2.76864 0.958903
head 1.67358 1.36226 0.983531
rclavicle -7.03698e-014 1.62864e-013
rhumerus -404.835 19.3592 269.389
rradius 68.5953
rwrist 11.0271
rhand -23.85 738.184
rfingers 7.12502
rthumb 2.62225 708.22
lclavicle -7.03698e-014 1.62864e-013
lhumerus -573.012 190.35 -469.995
lradius 81.019
lwrist -1.12033
lhand -18.949 -726.02
lfingers 7.12502
lthumb 7.35435 23.8317
rfemur -523.46 -182.962 554.932
rtibia 29.7963
rfoot 0.0919657 -20.8947
rtoes 26.6774
lfemur -8.41637 735.517 -23.0435
ltibia 79.5628
lfoot 144.956 567.963
ltoes 27.0739
